<?xml version="1.0" standalone="no"?>
<!DOCTYPE svg PUBLIC "-//W3C//DTD SVG 1.1//EN" "http://www.w3.org/Graphics/SVG/1.1/DTD/svg11.dtd" >
<!--
2013-9-30: Created.
-->
<svg>
<metadata>
Created by iconfont
</metadata>
<defs>

<font id="iconfont" horiz-adv-x="1024" >
  <font-face
    font-family="iconfont"
    font-weight="500"
    font-stretch="normal"
    units-per-em="1024"
    ascent="896"
    descent="-128"
  />
    <missing-glyph />
    
    <glyph glyph-name="icon_huaban" unicode="&#58891;" d="M128 160c-0.055-0-0.121-0.001-0.186-0.001-17.673 0-32 14.327-32 32 0 8.883 3.619 16.921 9.464 22.718l384.002 384.002c5.784 5.751 13.757 9.305 22.56 9.305s16.776-3.555 22.562-9.307l383.998-383.998c4.783-5.559 7.695-12.847 7.695-20.815 0-17.673-14.327-32-32-32-7.968 0-15.256 2.912-20.857 7.73l-361.238 361.565-361.92-362.24c-5.731-5.53-13.538-8.943-22.142-8.96z"  horiz-adv-x="1024" />

    
    <glyph glyph-name="huidaodingbu" unicode="&#58892;" d="M116.363636 840.145455h791.272728v-69.818182h-791.272728zM148.945455 365.38181799999995l51.2-46.545454 283.927272 283.927272v-674.909091h69.818182V602.763636l283.927273-283.927272 51.2 51.2L512 728.436364z"  horiz-adv-x="1024" />

    
    <glyph glyph-name="huidaodingbu1" unicode="&#58903;" d="M512 384m-498.871795 0a498.871795 498.871795 0 1 1 997.74359 0 498.871795 498.871795 0 1 1-997.74359 0ZM666.912821 288.164103L505.435897 464.082051 345.271795 288.164103c-5.251282-5.251282-13.128205-5.251282-18.379487-1.312821-5.251282 5.251282-5.251282 13.128205-1.312821 18.379487l170.666667 186.420513c5.251282 5.251282 14.441026 5.251282 19.692308 0l170.666666-186.420513c5.251282-5.251282 3.938462-13.128205-1.31282-18.379487-5.251282-3.938462-13.128205-3.938462-18.379487 1.312821zM512-128C229.74359-128 0 101.74359 0 384S229.74359 896 512 896s512-229.74359 512-512-229.74359-512-512-512z m0 13.128205c275.692308 0 498.871795 223.179487 498.871795 498.871795S787.692308 882.871795 512 882.871795 13.128205 659.692308 13.128205 384s223.179487-498.871795 498.871795-498.871795z"  horiz-adv-x="1024" />

    
    <glyph glyph-name="huidaodingbu2" unicode="&#59060;" d="M788.992 242.5344l17.6384 18.5344-277.632 264.3968L251.392 261.0688l17.664-18.5344 259.968 247.5776z"  horiz-adv-x="1024" />

    
    <glyph glyph-name="tiwenti" unicode="&#58885;" d="M949.864771 128.022888 492.098616 128.022888 205.99477-42.666667 205.99477 128.022888 148.774 128.022888C117.188136 128.022888 91.553231 153.486131 91.553231 184.900333L91.553231 753.789222C91.553231 785.203424 117.188136 810.666667 148.774 810.666667L949.864771 810.666667C981.450636 810.666667 1007.085541 785.203424 1007.085541 753.789222L1007.085541 184.900333C1007.085541 153.486131 981.450636 128.022888 949.864771 128.022888ZM949.864771 696.854556C949.864771 728.268759 924.229867 753.789222 892.644002 753.789222L205.99477 753.789222C174.408905 753.789222 148.774 728.268759 148.774 696.854556L148.774 241.777778C148.774 210.363575 174.408905 184.900333 205.99477 184.900333L263.215539 184.900333 263.215539 71.145444 434.877847 184.900333 892.644002 184.900333C924.229867 184.900333 949.864771 210.363575 949.864771 241.777778L949.864771 696.854556ZM657.008874 501.846174C623.820827 480.216724 620.158698 461.906077 612.319453 451.377456 612.319453 442.908782 610.60283 415.042267 612.319453 403.483672L611.747245 403.483672 611.747245 356.104875 560.420215 356.104875 560.420215 404.1131 561.164085 404.1131C563.281253 416.75889 561.164085 434.268446 561.164085 451.377456 561.164085 478.786204 554.011489 463.908804 568.660006 482.333892 579.932497 496.581864 585.540133 500.816201 618.155971 521.873444 638.412124 535.034221 648.025213 542.4157 656.436666 550.312166 669.36856 562.957956 676.120611 578.235902 676.120611 594.086055 676.120611 633.625606 638.984331 661.034355 585.540133 661.034355 548.976061 661.034355 520.251235 649.418539 501.711706 627.789088 492.155837 616.230492 487.635396 606.216858 481.455553 584.07242L434.191198 590.881692C445.978676 629.391269 457.251168 647.30137 480.311138 665.211471 506.174926 685.753727 542.796218 696.33957 587.199535 696.33957 664.90534 696.33957 721.725564 655.197836 721.725564 598.835379 721.725564 578.808109 717.205123 562.442969 708.221462 547.680011 698.093386 531.887078 687.96531 522.388431 657.008874 501.846174ZM606.540155 241.777778 549.319386 241.777778 549.319386 298.655223 606.540155 298.655223 606.540155 241.777778Z"  horiz-adv-x="1099" />

    
    <glyph glyph-name="huidawenti" unicode="&#58992;" d="M734.08 256l-50.944-149.376L785.92 106.624 734.08 256 734.08 256zM426.624 256l0-320c0-35.456 28.544-64 64-64L960-128c35.456 0 64 28.544 64 64L1024 405.376c0 35.456-28.544 64-64 64L640 469.376 640 320c0-35.456-28.544-64-64-64L426.624 256 426.624 256zM829.44 4.096c-3.456 6.656-6.144 12.544-8.064 17.92L804.864 64 664.704 64l-16.384-42.624c-6.656-16.64-11.904-27.904-16.64-33.92-4.736-6.144-11.904-8.704-22.4-8.704-8.576 0-16.64 2.944-23.296 8.96-6.656 6.016-9.984 13.44-9.984 21.376 0 4.224 0.64 8.96 2.304 13.696 1.28 4.736 4.096 11.776 7.68 20.48l88.32 214.144c2.304 6.016 5.376 13.44 8.96 22.016 3.456 8.704 7.424 15.744 11.264 21.376 4.096 5.76 8.96 10.496 15.744 14.08 6.656 3.456 14.464 5.376 24.32 5.376 9.6 0 17.664-1.92 24.32-5.376 6.4-3.584 11.52-8.32 15.616-13.696 4.096-5.76 7.424-11.776 9.984-17.92 2.816-6.4 6.4-14.72 10.624-25.344l89.984-213.12c7.04-16.256 10.624-27.904 10.624-35.2 0-8.064-3.456-15.104-9.984-21.376-6.656-6.4-14.72-9.344-23.936-9.344-5.76 0-10.496 0.64-14.464 2.56-3.84 2.176-6.784 4.48-9.6 7.68C835.456-7.68 832.384-2.56 829.44 4.096L829.44 4.096zM296.32 539.264c15.36 0 41.344-12.544 78.08-38.016 10.624 11.264 18.304 24.96 23.296 40.96 5.12 16 7.68 34.304 7.68 55.68 0 26.496-4.736 49.28-13.184 68.736-9.216 19.456-21.76 33.664-38.144 43.776-16.64 9.984-35.2 14.976-56.576 14.976-15.36 0-29.44-2.944-41.984-8.32-13.056-5.376-24.064-13.44-33.28-23.68-9.344-10.624-16.896-23.936-22.016-40.32-5.504-16.384-8.064-34.816-8.064-54.656 0-41.344 9.984-73.344 30.08-95.744 19.84-22.144 45.696-33.28 76.16-33.28 12.8 0 25.856 2.304 39.04 7.68-7.936 5.504-17.92 11.264-29.824 17.024-12.16 5.504-20.48 9.856-24.704 13.184-4.736 2.944-6.656 7.296-6.656 13.44 0 4.48 1.92 8.96 6.144 13.056C286.336 537.344 290.944 539.264 296.32 539.264L296.32 539.264zM64 896C28.544 896 0 867.456 0 832l0-469.376c0-35.456 28.544-64 64-64l469.376 0c35.456 0 64 28.544 64 64L597.376 832c0 35.456-28.544 64-64 64L64 896 64 896zM469.376 592.384c0-54.144-13.696-97.024-40.32-128.384 9.344-6.016 20.096-11.904 31.36-17.28 11.264-5.76 18.944-9.984 22.656-13.44 3.584-3.2 5.76-7.68 5.76-13.696 0-4.096-2.304-8.32-6.784-13.056-4.48-3.84-9.984-6.144-16-6.144-5.376 0-11.264 1.536-18.56 4.48-7.424 3.456-15.744 8.064-25.344 13.696-9.984 6.4-20.736 13.44-32 21.376-23.68-8.96-52.736-13.184-86.656-13.184-27.904 0-52.736 4.096-74.624 12.416-22.016 7.936-40.704 20.096-55.68 35.2-14.976 15.36-26.24 33.536-33.664 54.784-7.68 21.376-11.264 44.416-11.264 69.376 0 25.216 3.584 48.256 11.264 69.504 7.68 21.12 18.816 39.04 33.28 54.016 14.72 14.72 32.384 25.984 53.376 34.176 21.12 7.936 44.8 11.904 71.424 11.904 35.84 0 66.944-7.296 93.056-21.76 25.984-14.336 45.696-34.56 58.88-61.056C462.72 658.944 469.376 628.096 469.376 592.384L469.376 592.384zM469.376 592.384"  horiz-adv-x="1024" />

    
    <glyph glyph-name="huidawenti1" unicode="&#59003;" d="M678.528 288l-38.272-112 77.056 0L678.528 288 678.528 288zM448 288l0-240c0-26.624 21.504-48 48-48l352 0c26.624 0 48 21.376 48 48l0 352c0 26.624-21.376 48-48 48L608 448l0-112c0-26.496-21.504-48-48-48L448 288 448 288zM750.08 99.072c-2.56 4.992-4.608 9.472-6.016 13.44l-12.288 31.488-105.088 0-12.288-32c-4.992-12.544-8.96-20.992-12.544-25.472-3.456-4.608-8.96-6.528-16.768-6.528-6.4 0-12.544 2.304-17.408 6.784-4.992 4.48-7.552 10.112-7.552 16 0 3.2 0.512 6.784 1.792 10.24 1.024 3.584 3.072 8.832 5.76 15.36l66.304 160.64c1.792 4.48 3.968 10.112 6.656 16.512 2.56 6.528 5.632 11.776 8.448 16 3.072 4.352 6.656 7.808 11.776 10.624 4.992 2.56 10.88 3.968 18.304 3.968 7.168 0 13.312-1.408 18.176-3.968 4.864-2.688 8.704-6.272 11.648-10.24 3.072-4.352 5.632-8.832 7.552-13.44 2.048-4.864 4.864-11.008 8.064-19.072l67.456-159.872c5.248-12.16 8.064-20.992 8.064-26.368 0-6.144-2.56-11.392-7.552-16-4.992-4.864-11.008-7.04-17.92-7.04-4.352 0-7.808 0.512-10.88 1.92-2.816 1.664-5.12 3.328-7.168 5.76C754.56 90.24 752.384 94.08 750.08 99.072L750.08 99.072zM350.208 500.48c11.52 0 30.976-9.472 58.624-28.544 8.064 8.448 13.824 18.688 17.408 30.72 3.84 12.032 5.76 25.728 5.76 41.728 0 19.84-3.456 36.992-9.984 51.584-6.912 14.592-16.256 25.216-28.672 32.768-12.544 7.552-26.368 11.136-42.368 11.136-11.52 0-22.144-2.176-31.488-6.272-9.728-3.968-18.048-10.112-24.96-17.792-7.04-8.064-12.672-17.92-16.512-30.208-4.224-12.288-6.016-26.112-6.016-40.96 0-31.104 7.552-55.04 22.528-71.808 14.848-16.64 34.304-24.96 57.088-24.96 9.6 0 19.328 1.792 29.312 5.76-5.888 4.096-13.44 8.448-22.4 12.8-9.088 4.224-15.36 7.424-18.56 9.984-3.456 2.176-4.992 5.376-4.992 10.112 0 3.328 1.408 6.656 4.608 9.728C342.784 499.072 346.24 500.48 350.208 500.48L350.208 500.48zM176 768c-26.496 0-48-21.504-48-48l0-352c0-26.496 21.504-48 48-48l352 0c26.496 0 48 21.504 48 48l0 352c0 26.496-21.504 48-48 48L176 768 176 768zM480 540.288c0-40.576-10.24-72.832-30.208-96.384 7.04-4.48 15.104-8.96 23.552-12.928 8.448-4.352 14.208-7.552 17.024-10.112 2.688-2.432 4.352-5.76 4.352-10.24 0-3.072-1.792-6.272-5.12-9.728-3.328-2.944-7.552-4.608-12.032-4.608-3.968 0-8.448 1.152-13.952 3.328-5.632 2.56-11.904 6.016-19.072 10.24-7.552 4.864-15.488 10.112-23.936 16-17.792-6.784-39.552-9.856-65.024-9.856-20.992 0-39.552 3.072-56.064 9.216-16.512 5.888-30.592 15.104-41.728 26.368-11.136 11.52-19.712 25.088-25.344 41.088-5.76 16-8.448 33.28-8.448 51.968 0 18.816 2.688 36.096 8.448 52.096 5.76 15.872 14.08 29.312 24.96 40.448 11.008 11.008 24.32 19.584 39.936 25.6 15.872 5.888 33.664 8.96 53.632 8.96 26.88 0 50.304-5.504 69.76-16.384 19.456-10.752 34.304-25.856 44.16-45.696C475.008 590.208 480 567.04 480 540.288L480 540.288zM480 540.288"  horiz-adv-x="1024" />

    
    <glyph glyph-name="xiewenzhang" unicode="&#58967;" d="M343.1 44.6c-3.4 0-6.6 1.3-9.1 3.8-3.4 3.4-4.6 8.4-3.1 13l52.9 163.4c1.5 4.6 4.1 8.9 7.6 12.4l386.7 386.7c10.5 10.5 27.7 10.5 38.2 0l93.2-93.2c10.5-10.5 10.5-27.6 0-38.2L523.2 105.4c-3.5-3.5-7.8-6.1-12.5-7.6L347 45.3c-1.3-0.5-2.6-0.7-3.9-0.7z m452 562.4L408.3 220.2c-0.8-0.8-1.4-1.7-1.7-2.8l-46.2-142.7 143 45.9c1.1 0.3 2 0.9 2.8 1.7l386.4 387.1c1.2 1.2 1.2 3.1 0 4.2L799.3 607c-1.1 1.1-3 1.1-4.2 0zM848.4 436.3c-3.1 0-6.1 1.2-8.5 3.5L725.4 554.3c-4.7 4.7-4.7 12.3 0 17 4.7 4.7 12.3 4.7 17 0l114.5-114.5c4.7-4.7 4.7-12.3 0-17-2.4-2.4-5.4-3.5-8.5-3.5zM514.7 101.9c-3.1 0-6.1 1.2-8.5 3.5L391.4 220.2c-4.7 4.7-4.7 12.3 0 17 4.7 4.7 12.3 4.7 17 0l114.8-114.8c4.7-4.7 4.7-12.3 0-17-2.4-2.3-5.5-3.5-8.5-3.5zM766-63H159c-28.9 0-52.5 23.5-52.5 52.5v789C106.5 807.4 130 831 159 831h607c28.9 0 52.5-23.5 52.5-52.5v-163.1c0-6.6-5.4-12-12-12s-12 5.4-12 12V778.5c0 15.7-12.8 28.5-28.5 28.5H159c-15.7 0-28.5-12.8-28.5-28.5v-789.1c0-15.7 12.8-28.5 28.5-28.5h607c15.7 0 28.5 12.8 28.5 28.5V406.2c0 6.6 5.4 12 12 12s12-5.4 12-12v-416.7c-0.1-29-23.6-52.5-52.5-52.5zM605 624H240c-6.6 0-12 5.4-12 12s5.4 12 12 12h365c6.6 0 12-5.4 12-12s-5.4-12-12-12zM483 463H240c-6.6 0-12 5.4-12 12s5.4 12 12 12h243c6.6 0 12-5.4 12-12s-5.4-12-12-12z"  horiz-adv-x="1024" />

    
    <glyph glyph-name="icon" unicode="&#58882;" d="M512 829.834045c-245.407246 0-444.348204-198.941981-444.348204-444.348204 0-245.407246 198.940958-444.349227 444.348204-444.349228 90.432639 0 174.405145 27.229155 244.586554 73.633021 1.785669 0.802272 3.40147 1.874697 4.898567 3.098571 0.413416 0.281409 0.856507 0.520863 1.269923 0.803296l-0.140193 0.128936c4.347005 4.056386 7.105838 9.78997 7.105838 16.204054 0 12.269441-9.94756 22.217001-22.217001 22.217001-6.469342 0-12.240789-2.811022-16.300244-7.223519-0.214894 0.23843-0.398066 0.421602-0.613984 0.663103-62.839187-41.108257-137.894603-65.089437-218.58946-65.089438-220.866317 0-399.914202 179.046862-399.914202 399.913179 0 220.865293 179.046862 399.912156 399.914202 399.912156 220.866317 0 399.913179-179.046862 399.913179-399.912156 0-92.647073-31.591509-177.864944-84.47188-245.667165 0.042979-0.051165 0.084934-0.086981 0.12689-0.138147-2.801812-3.717671-4.524037-8.292873-4.524037-13.30605 0-12.270465 9.946536-22.217001 22.217001-22.217001 7.90197 0 14.797008 4.155646 18.73469 10.371208 57.831126 75.011414 92.352361 168.917154 92.352361 270.958179 0 245.406223-198.941981 444.348204-444.348204 444.348204z m187.063443-517.68549c-0.119727-24.88169-9.986445-34.296107-34.102702-34.443463 0 0-6.091742 0.205685-7.369852 0.205684-12.858866 0-21.919219-4.702092-21.919218-17.587563 0-12.882402 5.196349-17.662265 18.055214-17.662265 0.598634 0 23.466458 0.057305 23.466458 0.057305 31.465642 0 56.979736 25.90295 56.979736 57.857732V532.023288c0 31.954783-25.51307 57.860802-56.979736 57.860803H329.396125c-31.471782 0-57.344033-25.904996-57.344032-57.860803v-231.446279c0-31.957853 25.875321-57.860802 57.344032-57.860803h186.850596l76.815503-78.019934c8.91402-9.041934 18.510586-10.272971 27.427676-1.233084 8.915044 9.038864 5.630231 18.263969-3.287883 27.302833l-71.406306 72.962755c-8.93551 7.772011-13.959943 14.123672-29.205159 13.977339H340.900134c-25.76071 0.146333-33.747615 9.090029-34.099633 34.443464V518.883013c0.352017 21.640879 10.217712 36.70497 34.099633 36.007076h324.060607c25.055652 0.226151 34.922371-12.012591 34.102702-36.007076v-206.734458zM379.877867 416.270984c0-14.804171 11.980869-26.805506 26.750247-26.805506 14.776542 0 26.750247 12.002358 26.750247 26.805506 0 14.807241-11.973706 26.805506-26.750247 26.805506-14.770402 0.001023-26.750247-11.997242-26.750247-26.805506z m96.343255 0c0-14.804171 11.974729-26.805506 26.747177-26.805506 14.776542 0 26.750247 12.002358 26.750248 26.805506 0 14.807241-11.974729 26.805506-26.750248 26.805506-14.772448 0.001023-26.747177-11.997242-26.747177-26.805506z m96.341209 0c0-14.804171 11.976776-26.805506 26.750247-26.805506s26.750247 12.002358 26.750247 26.805506c0 14.807241-11.977799 26.805506-26.750247 26.805506s-26.750247-11.997242-26.750247-26.805506z"  horiz-adv-x="1024" />

    
    <glyph glyph-name="tiwenti1" unicode="&#58920;" d="M278.459733 890.606933h409.6a273.066667 273.066667 0 0 0 273.066667-273.066666v-409.6a273.066667 273.066667 0 0 0-273.066667-273.066667h-409.6a273.066667 273.066667 0 0 0-273.066666 273.066667v409.6a273.066667 273.066667 0 0 0 273.066666 273.066666z m0-86.8352A186.1632 186.1632 0 0 1 92.16 617.472v-409.6a186.1632 186.1632 0 0 1 186.231467-186.1632h409.6a186.1632 186.1632 0 0 1 186.1632 186.1632v409.6a186.1632 186.1632 0 0 1-186.1632 186.231467h-409.6zM470.357333 236.680533a53.248 53.248 0 0 0 40.277334-15.7696c10.6496-10.308267 15.9744-23.7568 15.9744-40.413866a56.661333 56.661333 0 0 0-15.9744-41.1648 58.9824 58.9824 0 0 0-40.277334-15.7696 49.493333 49.493333 0 0 0-38.7072 16.5888 53.8624 53.8624 0 0 0-16.725333 40.3456c0 16.657067 5.3248 30.037333 16.725333 40.413866 9.8304 11.0592 22.801067 15.7696 38.7072 15.7696z m21.162667 477.866667c51.6096 0 92.9792-13.653333 124.7232-42.666667 30.993067-28.194133 46.8992-66.833067 46.8992-115.0976 0-39.458133-10.308267-72.4992-29.354667-98.304-7.168-8.874667-29.422933-29.764267-67.584-62.805333-14.336-12.834133-25.3952-26.555733-32.5632-41.028267a110.250667 110.250667 0 0 1-12.6976-53.930666v-13.653334H435.950933v13.653334c0 29.764267 4.778667 55.569067 15.086934 76.458666 11.127467 22.528 41.3696 55.569067 90.589866 99.874134l13.5168 15.291733c14.336 18.500267 21.435733 37.819733 21.435734 58.7776 0 28.194133-7.918933 49.902933-23.005867 66.013867-15.906133 16.110933-38.161067 24.1664-66.7648 24.1664-35.771733 0-61.986133-11.264-77.824-33.792-14.336-19.319467-21.504-47.5136-21.504-82.944H303.240533c0 58.709333 16.725333 104.6528 50.858667 138.513066 33.450667 34.6112 79.4624 51.473067 137.489067 51.473067z"  horiz-adv-x="1024" />

    
    <glyph glyph-name="ask" unicode="&#58921;" d="M292.571429 896h438.857142c161.579221 0 292.571429-130.992208 292.571429-292.571429v-438.857142c0-161.579221-130.992208-292.571429-292.571429-292.571429H292.571429C130.992208-128 0 2.992208000000005 0 164.57142899999997V603.4285709999999C0 765.007792 130.992208 896 292.571429 896z m0-93.090909C182.404987 802.909091 93.090909 713.595013 93.090909 603.4285709999999v-438.857142c0-110.166442 89.314078-199.480519 199.48052-199.48052h438.857142c110.166442 0 199.480519 89.314078 199.48052 199.48052V603.4285709999999c0 110.166442-89.314078 199.480519-199.48052 199.48052H292.571429z m205.730909-607.53787c17.088831 0 31.744-5.093403 43.140987-16.969143 11.396987-11.011325 17.10213-25.427117 17.10213-43.247377 0-17.806961-5.705143-32.222753-17.10213-44.085195-12.208208-11.037922-26.863377-16.969143-43.154286-16.969142-17.088831 0-30.932779 5.944519-41.518545 17.820259-12.208208 11.862442-17.913351 26.278234-17.913351 43.234078 0 17.82026 5.705143 32.236052 17.913351 43.247377 10.585766 11.87574 24.429714 16.969143 41.518545 16.969143z m22.634389 512c55.335896 0 99.607273-14.668468 133.665247-45.720935C687.808831 631.448935 704.831169 590.036779 704.831169 538.2649349999999c0-42.276571-11.064519-77.651117-31.504624-105.259221-7.660052-9.481974-31.491325-31.916883-72.358233-67.291428-15.320104-13.804052-27.249039-28.459221-34.909091-43.992104-9.362286-17.261714-13.61787-36.238961-13.61787-57.809455v-14.668467h-91.096104v14.668467c0 31.916883 5.106701 59.524987 16.171221 81.959896 11.928935 24.16374 44.284675 59.524987 97.053922 106.974754l14.482285 16.397298c15.320104 19.841662 22.980156 40.54774 22.980156 62.98265 0 30.188052-8.511169 53.487377-24.682389 70.749091-17.022338 17.248416-40.866909 25.865974-71.520416 25.865974-38.30026 0-66.400416-12.075221-83.436052-36.225663-15.320104-20.706078-22.980156-50.907429-22.980156-88.861922H319.168831c0 62.982649 17.873455 112.147948 54.484779 148.386909 35.760208 37.103377 85.138286 55.216208 147.283117 55.216208z"  horiz-adv-x="1024" />

    
    <glyph glyph-name="xiewenzhang1" unicode="&#58880;" d="M205.65856091 456.18047859a24.71921511 24.71921511 0 0 1 24.71921511 24.71921511v40.53951293a24.71921511 24.71921511 0 0 1-49.43843023 0v-40.53951293a24.71921511 24.71921511 0 0 1 24.71921511-24.71921511zM926.96525803 379.30372015a24.71921511 24.71921511 0 0 1-11.37083956 15.07872068l-85.77567573 49.4384302a24.71921511 24.71921511 0 0 1-33.61813316-8.89891727L774.20050836 396.85436233V680.63095207a74.15764531 74.15764531 0 0 1-74.15764531 74.15764531h-49.43843023a24.71921511 24.71921511 0 0 1-24.71921509 24.71921512H329.25463644a24.71921511 24.71921511 0 0 1-24.7192151-24.71921511H255.09699111a74.15764531 74.15764531 0 0 1-74.15764531-74.15764532v-53.64069686a24.71921511 24.71921511 0 0 1 49.43843022 0V680.63095207a24.71921511 24.71921511 0 0 0 24.71921509 24.71921511h49.43843022v-12.35960755a49.43843022 49.43843022 0 0 1 49.43843022-49.43843021h247.19215106a49.43843022 49.43843022 0 0 1 49.43843021 49.43843021V705.35016719h49.43843022a24.71921511 24.71921511 0 0 0 24.71921511-24.71921511v-369.30507386l-120.13538527-208.38298327A22.98886997 22.98886997 0 0 1 601.16600261 87.36978951000003l7.66295693-49.43843022H255.09699111a24.71921511 24.71921511 0 0 0-24.71921509 24.7192151V369.66322572a24.71921511 24.71921511 0 0 1-49.43843022 0V62.65057439999998a74.15764531 74.15764531 0 0 1 74.15764531-74.15764532h383.14783417a22.74167759 22.74167759 0 0 1 8.89891728 1.73034514l74.15764532 27.93271298a24.71921511 24.71921511 0 0 1 12.60679994 10.62926242l148.31529064 257.07983711 43.25862605 74.15764533a23.23606236 23.23606236 0 0 1 1.48315352 19.28098809zM353.97385155 692.99055963V730.06938228h247.19215107v-37.07882265z m472.63139254-304.29353819l42.76424282-24.71921512-18.53941172-32.13497964-38.06759141 22.00010199-4.69665064 2.71911311z m-132.00060806-327.52959979l-36.58443867-14.08995269-6.17980339 38.8091678 131.50622407 227.91116297 21.50571721-12.35960755 21.25852484-12.35960755zM650.60443282 344.44962662V557.03487654a24.71921511 24.71921511 0 0 1-24.71921509 24.71921511H329.25463644a24.71921511 24.71921511 0 0 1-24.7192151-24.71921512v-420.22665681a24.71921511 24.71921511 0 0 1 24.7192151-24.7192151h166.3603176a49.43843022 49.43843022 0 0 1 42.76424205 24.7192151l105.55104859 182.92219178a49.43843022 49.43843022 0 0 1 6.67418814 24.71921512z"  horiz-adv-x="1024" />

    
    <glyph glyph-name="xiexiangfa" unicode="&#60241;" d="M517.796226 657.581887a284.981132 284.981132 0 0 1-284.594717-284.787925 281.116981 281.116981 0 0 1 140.461887-245.373585v-171.954717A81.340377 81.340377 0 0 1 454.230943-128h127.323774a82.306415 82.306415 0 0 1 81.533585 82.499623v172.920754a284.981132 284.981132 0 0 1-145.292076 530.16151z m84.238491-702.309434a21.059623 21.059623 0 0 0-20.48-20.866415h-127.130566a19.320755 19.320755 0 0 0-19.320755 20.866415v49.461132h166.931321zM618.264151 173.210566a30.526792 30.526792 0 0 1-16.615849-27.435472V65.207547h-51.586415V262.086038h74.191698a30.526792 30.526792 0 1 1 0 61.246792H412.884528a30.526792 30.526792 0 1 1 0-61.246792h75.350944V65.207547h-53.132076v80.37434a30.913208 30.913208 0 0 1-17.388679 27.435471 223.541132 223.541132 0 0 0 100.274717 423.510944 223.927547 223.927547 0 0 0 223.541132-223.73434A221.415849 221.415849 0 0 0 618.264151 173.210566zM0 424.766792m38.061887 0l81.14717 0q38.061887 0 38.061886-38.061886l0-4.443774q0-38.061887-38.061886-38.061887l-81.14717 0q-38.061887 0-38.061887 38.061887l0 4.443774q0 38.061887 38.061887 38.061886ZM80.720748 698.911332m26.913818 26.913818l3.142223 3.142223q26.913818 26.913818 53.827636 0l57.379714-57.379714q26.913818-26.913818 0-53.827637l-3.142222-3.142222q-26.913818-26.913818-53.827637 0l-57.379714 57.379714q-26.913818 26.913818 0 53.827636ZM478.768302 896m38.061887 0l4.443773 0q38.061887 0 38.061887-38.061887l0-81.14717q0-38.061887-38.061887-38.061886l-4.443773 0q-38.061887 0-38.061887 38.061886l0 81.14717q0 38.061887 38.061887 38.061887ZM878.707925 424.766792m38.061886 0l81.14717 0q38.061887 0 38.061887-38.061886l0-4.443774q0-38.061887-38.061887-38.061887l-81.14717 0q-38.061887 0-38.061886 38.061887l0 4.443774q0 38.061887 38.061886 38.061886ZM772.905135 644.648861m26.913819 26.913818l57.379714 57.379714q26.913818 26.913818 53.827636 0l3.142223-3.142222q26.913818-26.913818 0-53.827637l-57.379714-57.379714q-26.913818-26.913818-53.827637 0l-3.142222 3.142223q-26.913818 26.913818 0 53.827636Z"  horiz-adv-x="1036" />

    
    <glyph glyph-name="xiewenzhang-copy" unicode="&#58881;" d="M988.26666667 653.76a69.14133333 69.14133333 0 0 1-28.05333334 45.86666667l-68.05333333 49.81333333c-12.8 9.6-28.48 14.4-44.37333333 13.76-18.66666667 45.22666667-63.14666667 77.22666667-115.09333334 77.54666667H159.57333333c-68.58666667-0.53333333-124.05333333-56-124.58666666-124.58666667v-664.42666667c0.53333333-68.58666667 56-124.05333333 124.58666666-124.58666666h573.12c68.58666667 0.53333333 124.05333333 56 124.58666667 124.58666666V441.49333333L975.14666667 601.6c11.2 14.93333333 15.89333333 33.70666667 13.12 52.16zM807.36 51.73333333000005c0.10666667-19.84-7.78666667-38.93333333-21.76-52.90666666-14.08-14.08-33.06666667-21.86666667-52.90666667-21.76H159.57333333c-19.84-0.10666667-38.93333333 7.78666667-52.90666666 21.76-14.08 14.08-21.86666667 33.06666667-21.76 52.90666666v664.53333334c-0.10666667 19.84 7.78666667 38.93333333 21.76 52.90666666 14.08 14.08 33.06666667 21.86666667 52.90666666 21.76h573.12c19.84 0.10666667 38.93333333-7.78666667 52.90666667-21.76 7.25333333-7.25333333 12.90666667-16 16.64-25.38666666-2.98666667-2.88-5.65333333-5.97333333-8.10666667-9.28L455.25333333 274.34666667c-9.92-11.62666667-14.93333333-26.56-18.24-43.2l-18.24-114.66666667c-3.73333333-20.37333333 4.69333333-41.06666667 21.54666667-53.12 11.62666667-8.10666667 25.81333333-11.62666667 39.89333333-9.92 5.01333333 1.70666667 11.62666667 3.30666667 14.93333334 6.61333333l104.64 51.52c14.61333333 6.61333333 27.2 16.85333333 36.58666666 29.86666667L807.46666667 373.76v-322.02666667zM596.48 171.41333333c-4.90666667-6.29333333-11.09333333-11.41333333-18.24-14.93333333L473.6 104.96000000000004c-0.64-0.74666667-1.49333333-1.28-2.45333333-1.28s-1.92 0.42666667-2.45333334 1.28c-1.28 1.28-1.92 3.2-1.70666666 5.01333333l18.24 114.66666667c1.6 7.89333333 5.01333333 15.25333333 9.92 21.54666667l271.68 367.57333333 100.69333333-74.24-271.04-368.10666667zM935.25333333 631.46666667L897.06666667 579.6266666700001l-100.69333334 74.13333333 37.54666667 50.88c2.77333333 4.8 7.78666667 7.89333333 13.33333333 8.32 5.01333333 1.70666667 9.92 0 14.93333334-1.70666667l68.16-51.52c4.58666667-2.98666667 7.68-7.68 8.64-13.01333333 0.96-5.33333333-0.42666667-10.88-3.73333334-15.25333333zM186.13333333 644.8h382.08c8.85333333 0 17.17333333 4.8 21.54666667 12.48 4.48 7.68 4.48 17.17333333 0 24.96-4.48 7.68-12.69333333 12.48-21.54666667 12.48H186.13333333c-8.85333333 0-17.17333333-4.69333333-21.54666666-12.48-4.48-7.68-4.48-17.17333333 0-24.96 4.37333333-7.68 12.58666667-12.48 21.54666666-12.48zM445.22666667 498.66666667H186.13333333c-13.76 0-24.96-11.2-24.96-24.96 0-13.76 11.2-24.96 24.96-24.96h259.09333334c13.65333333 0.32 24.53333333 11.30666667 24.96 24.96 0.10666667 6.61333333-2.45333333 13.01333333-7.14666667 17.70666666-4.69333333 4.8-11.09333333 7.36-17.81333333 7.25333334zM327.36 304.21333332999995H186.13333333c-8.85333333 0-17.17333333-4.69333333-21.54666666-12.48-4.48-7.68-4.48-17.17333333 0-24.96 4.48-7.68 12.69333333-12.48 21.54666666-12.48h141.22666667c8.85333333 0 17.17333333 4.69333333 21.54666667 12.48 4.48 7.68 4.48 17.17333333 0 24.96-4.48 7.78666667-12.69333333 12.58666667-21.54666667 12.48z"  horiz-adv-x="1024" />

    
    <glyph glyph-name="tiwenti2" unicode="&#58936;" d="M170.666667 64l-108.8-108.8c-4.266667-4.266667-10.666667-4.266667-14.933334 0-2.133333 0-4.266667 4.266667-4.266666 6.4V661.333333c0 93.866667 76.8 170.666667 170.666666 170.666667h597.333334c93.866667 0 170.666667-76.8 170.666666-170.666667v-426.666666c0-93.866667-76.8-170.666667-170.666666-170.666667H170.666667z m352 618.666667c-44.8 0-78.933333-12.8-104.533334-38.4-17.066667-14.933333-27.733333-38.4-34.133333-70.4v-4.266667c0-14.933333 12.8-27.733333 27.733333-27.733333 17.066667 0 29.866667 12.8 34.133334 27.733333 2.133333 14.933333 6.4 25.6 14.933333 32 12.8 17.066667 32 25.6 57.6 25.6 21.333333 0 38.4-6.4 51.2-17.066667 10.666667-12.8 17.066667-27.733333 17.066667-49.066666 0-14.933333-6.4-29.866667-17.066667-42.666667l-10.666667-10.666667c-36.266667-32-59.733333-57.6-68.266666-74.666666-8.533333-14.933333-12.8-34.133333-12.8-57.6 0-17.066667 14.933333-32 32-32s32 14.933333 32 32c0 14.933333 2.133333 27.733333 8.533333 38.4 6.4 10.666667 12.8 21.333333 25.6 32 27.733333 23.466667 44.8 40.533333 51.2 46.933333 14.933333 19.2 23.466667 42.666667 23.466667 72.533333 0 36.266667-12.8 64-36.266667 85.333334S561.066667 682.666667 522.666667 682.666667zM512 311.466667c-12.8 0-23.466667-4.266667-32-12.8-8.533333-8.533333-12.8-17.066667-12.8-29.866667 0-12.8 4.266667-21.333333 12.8-29.866667 8.533333-8.533333 19.2-12.8 32-12.8s23.466667 4.266667 32 12.8c8.533333 8.533333 12.8 19.2 12.8 32s-4.266667 23.466667-12.8 29.866667c-8.533333 8.533333-19.2 10.666667-32 10.666667z"  horiz-adv-x="1024" />

    
    <glyph glyph-name="iconset0268" unicode="&#59047;" d="M448 234.666667l-42.666667 0 0-42.666667 42.666667 0L448 234.666667zM362.666667 320l-42.666667 0 0-42.666667 42.666667 0L362.666667 320zM448 320l-42.666667 0 0-42.666667 42.666667 0L448 320zM362.666667 234.666667l-42.666667 0 0-42.666667 42.666667 0L362.666667 234.666667zM362.666667 106.666667l42.666667 0 0 42.666667-42.666667 0L362.666667 106.666667zM277.333333 234.666667l-42.666667 0 0-42.666667 42.666667 0L277.333333 234.666667zM533.333333 234.666667l-42.666667 0 0-42.666667 42.666667 0L533.333333 234.666667zM277.333333 320l-42.666667 0 0-42.666667 42.666667 0L277.333333 320zM789.333333 234.666667l-42.666667 0 0-42.666667 42.666667 0L789.333333 234.666667zM704 320l-42.666667 0 0-42.666667 42.666667 0L704 320zM789.333333 320l-42.666667 0 0-42.666667 42.666667 0L789.333333 320zM533.333333 106.666667l42.666667 0 0 42.666667-42.666667 0L533.333333 106.666667zM704 234.666667l-42.666667 0 0-42.666667 42.666667 0L704 234.666667zM618.666667 320l-42.666667 0 0-42.666667 42.666667 0L618.666667 320zM533.333333 320l-42.666667 0 0-42.666667 42.666667 0L533.333333 320zM618.666667 234.666667l-42.666667 0 0-42.666667 42.666667 0L618.666667 234.666667zM448 106.666667l42.666667 0 0 42.666667-42.666667 0L448 106.666667zM789.333333 106.666667l85.333333 0 0 42.666667-85.333333 0L789.333333 106.666667zM832 21.333333l42.666667 0 0 42.666667-42.666667 0L832 21.333333zM661.333333 21.333333l42.666667 0 0 42.666667-42.666667 0L661.333333 21.333333zM746.666667 149.333333l-42.666667 0 0-42.666667 42.666667 0L746.666667 149.333333zM746.666667 21.333333l42.666667 0 0 42.666667-42.666667 0L746.666667 21.333333zM832 192l42.666667 0 0 42.666667-42.666667 0L832 192zM192 320 149.333333 320l0-42.666667 42.666667 0L192 320zM832 277.333333l42.666667 0 0 42.666667-42.666667 0L832 277.333333zM896 426.666667 518.4 426.666667c-6.4 14.933333-8.533333 32-4.266667 51.2 8.533333 34.133333 40.533333 61.866667 91.733333 78.933333 85.333333 27.733333 125.866667 83.2 142.933333 123.733333 21.333333 49.066667 23.466667 106.666667 6.4 160-4.266667 10.666667-14.933333 17.066667-27.733333 12.8-10.666667-4.266667-17.066667-14.933333-12.8-27.733333 27.733333-81.066667 0-187.733333-121.6-230.4-83.2-27.733333-110.933333-74.666667-119.466667-110.933333-4.266667-19.2-4.266667-40.533333 0-59.733333L128 424.533333c-46.933333 0-85.333333-38.4-85.333333-85.333333l0-341.333333c0-46.933333 38.4-85.333333 85.333333-85.333333l768 0c46.933333 0 85.333333 38.4 85.333333 85.333333L981.333333 341.333333C981.333333 388.266667 942.933333 426.666667 896 426.666667zM938.666667 0c0-23.466667-19.2-42.666667-42.666667-42.666667L128-42.666667c-23.466667 0-42.666667 19.2-42.666667 42.666667L85.333333 341.333333c0 23.466667 19.2 42.666667 42.666667 42.666667l768 0c23.466667 0 42.666667-19.2 42.666667-42.666667L938.666667 0zM234.666667 149.333333 149.333333 149.333333l0-42.666667 85.333333 0L234.666667 149.333333zM149.333333 21.333333l42.666667 0 0 42.666667L149.333333 64 149.333333 21.333333zM192 234.666667 149.333333 234.666667l0-42.666667 42.666667 0L192 234.666667zM234.666667 21.333333l42.666667 0 0 42.666667-42.666667 0L234.666667 21.333333zM320 21.333333l298.666667 0 0 42.666667L320 64 320 21.333333zM661.333333 149.333333l-42.666667 0 0-42.666667 42.666667 0L661.333333 149.333333zM320 149.333333l-42.666667 0 0-42.666667 42.666667 0L320 149.333333z"  horiz-adv-x="1024" />

    
    <glyph glyph-name="icon_rotate" unicode="&#58909;" d="M941.728 758.848c0 14.848-9.152 28-22.272 33.728-13.728 5.696-29.728 2.848-40-8l-74.304-73.728c-80.576 76-189.696 121.152-302.272 121.152-241.728 0-438.88-197.152-438.88-438.88 0-241.696 197.152-438.848 438.88-438.848 130.848 0 254.272 57.728 337.696 158.304 5.728 7.424 5.728 18.272-1.12 24.544l-78.304 78.88c-4 3.424-9.152 5.12-14.272 5.12-5.152-0.544-10.304-2.848-13.152-6.848-56-72.576-140-113.696-230.848-113.696-161.152 0-292.576 131.424-292.576 292.544 0 161.152 131.424 292.576 292.576 292.576 74.848 0 145.696-28.576 199.424-78.272l-78.848-78.848c-10.88-10.304-13.728-26.304-8-39.456 5.696-13.696 18.848-22.848 33.696-22.848h256c20 0 36.576 16.576 36.576 36.576v256z"  horiz-adv-x="1024" />

    
    <glyph glyph-name="hot" unicode="&#58942;" d="M768 563.2l-76.8-76.8c0 0 0 307.2-256 409.6 0 0-25.6-281.6-153.6-384s-384-409.6 128-640c0 0-256 281.6 76.8 486.4 0 0-25.6-102.4 102.4-204.8s0-281.6 0-281.6 614.4 153.6 179.2 691.2z"  horiz-adv-x="1024" />

    
    <glyph glyph-name="sousuo" unicode="&#58908;" d="M850.39104 77.88544l-145.67424 142.80704a308.71552 308.71552 0 0 1 87.42912 214.87616c-2.62144 174.53056-145.5104 314.32704-320.06144 313.15968-174.67392 1.31072-317.68576-138.50624-320.3072-313.18016 2.47808-174.75584 145.53088-314.75712 320.32768-313.42592a322.21184 322.21184 0 0 1 169.82016 48.2304l151.01952-147.84512 58.4704 54.19008c-0.36864 0.38912-0.63488 0.8192-1.024 1.18784z m-209.01888 192.08192c-94.33088-91.46368-244.26496-91.46368-338.59584 0a230.56384 230.56384 0 0 0 0 331.1616c94.33088 91.46368 244.26496 91.46368 338.59584 0a231.0144 231.0144 0 0 0 0-331.1616z"  horiz-adv-x="1024" />

    
    <glyph glyph-name="zhuce" unicode="&#59059;" d="M880.88381 434.95619a97.718857 97.718857 0 0 0 0-137.99619l-241.371429-241.371429a97.718857 97.718857 0 0 0-137.996191 0 97.718857 97.718857 0 0 0 0 137.996191l241.371429 241.371428c38.034286 37.790476 100.205714 37.790476 137.996191 0zM762.63619-9.752381h-71.43619c-6.826667 0-12.190476 5.36381-12.190476 12.190476s5.36381 12.190476 12.190476 12.190476h71.43619c20.23619 0 36.571429 16.335238 36.571429 36.571429v72.167619c0 6.826667 5.36381 12.190476 12.190476 12.190476s12.190476-5.36381 12.190476-12.190476v-72.167619a60.952381 60.952381 0 0 0-60.952381-60.952381zM375.222857-9.752381H240.88381a60.952381 60.952381 0 0 0-60.952381 60.952381V697.782857a60.952381 60.952381 0 0 0 60.952381 60.952381h521.75238a60.952381 60.952381 0 0 0 60.952381-60.952381v-130.925714c0-6.826667-5.36381-12.190476-12.190476-12.190476s-12.190476 5.36381-12.190476 12.190476V697.782857c0 20.23619-16.335238 36.571429-36.571429 36.571429H240.88381c-20.23619 0-36.571429-16.335238-36.571429-36.571429v-646.826667c0-20.23619 16.335238-36.571429 36.571429-36.571428h134.339047c6.826667 0 12.190476-5.36381 12.190476-12.190476s-5.36381-11.946667-12.190476-11.946667zM714.849524 577.097143H408.380952c-6.826667 0-12.190476 5.36381-12.190476 12.190476s5.36381 12.190476 12.190476 12.190476h306.224762c6.826667 0 12.190476-5.36381 12.190476-12.190476s-5.36381-12.190476-11.946666-12.190476zM666.575238 450.072381H408.380952c-6.826667 0-12.190476 5.36381-12.190476 12.190476s5.36381 12.190476 12.190476 12.190476h257.950477c6.826667 0 12.190476-5.36381 12.190476-12.190476s-5.36381-12.190476-11.946667-12.190476zM537.6 323.291429h-128.975238c-6.826667 0-12.190476 5.36381-12.190476 12.190476s5.36381 12.190476 12.190476 12.190476h128.975238c6.826667 0 12.190476-5.36381 12.190476-12.190476s-5.607619-12.190476-12.190476-12.190476zM323.047619 577.097143h-34.133333c-6.826667 0-12.190476 5.36381-12.190476 12.190476s5.36381 12.190476 12.190476 12.190476h34.133333c6.826667 0 12.190476-5.36381 12.190476-12.190476s-5.36381-12.190476-12.190476-12.190476zM323.047619 450.072381h-34.133333c-6.826667 0-12.190476 5.36381-12.190476 12.190476s5.36381 12.190476 12.190476 12.190476h34.133333c6.826667 0 12.190476-5.36381 12.190476-12.190476s-5.36381-12.190476-12.190476-12.190476zM323.047619 323.291429h-34.133333c-6.826667 0-12.190476 5.36381-12.190476 12.190476s5.36381 12.190476 12.190476 12.190476h34.133333c6.826667 0 12.190476-5.36381 12.190476-12.190476s-5.36381-12.190476-12.190476-12.190476zM323.047619 196.266667h-34.133333c-6.826667 0-12.190476 5.36381-12.190476 12.190476s5.36381 12.190476 12.190476 12.190476h34.133333c6.826667 0 12.190476-5.36381 12.190476-12.190476s-5.36381-12.190476-12.190476-12.190476zM420.327619-38.034286a11.459048 11.459048 0 0 0-8.533333 3.657143 11.873524 11.873524 0 0 0-3.413334 10.48381l31.939048 204.55619c0.487619 2.438095 1.706667 4.87619 3.413333 6.826667L767.024762 510.780952c22.186667 22.186667 56.56381 23.893333 76.55619 3.900953l117.272381-117.272381c9.99619-9.99619 14.872381-23.405714 13.897143-38.278095-0.975238-14.140952-7.314286-27.794286-17.798095-38.278096L633.417143-2.681905c-1.950476-1.706667-4.388571-2.925714-6.826667-3.413333l-204.55619-31.939048h-1.706667z m43.154286 210.895238l-28.769524-184.07619 184.07619 28.769524 320.609524 320.609524c6.339048 6.339048 9.99619 14.384762 10.727619 22.674285 0.487619 7.558095-1.950476 14.628571-6.826666 19.504762l-117.272381 117.272381c-10.24 10.24-29.744762 8.533333-42.179048-3.900952L463.481905 172.860952z m484.693333 156.525715zM890.63619 259.657143a11.459048 11.459048 0 0 0-8.533333 3.657143l-172.617143 172.617143c-4.87619 4.87619-4.87619 12.434286 0 17.310476s12.434286 4.87619 17.310476 0l172.617143-172.617143c4.87619-4.87619 4.87619-12.434286 0-17.310476-2.438095-2.438095-5.607619-3.657143-8.777143-3.657143zM537.112381-19.992381a11.459048 11.459048 0 0 0-8.533333 3.657143l-93.866667 93.866667c-4.87619 4.87619-4.87619 12.434286 0 17.310476s12.434286 4.87619 17.310476 0l93.866667-93.866667c4.87619-4.87619 4.87619-12.434286 0-17.310476-2.681905-2.438095-5.607619-3.657143-8.777143-3.657143zM522.727619 121.904762a11.459048 11.459048 0 0 0-8.533333 3.657143c-4.87619 4.87619-4.87619 12.434286 0 17.310476l252.830476 252.830476c4.87619 4.87619 12.434286 4.87619 17.310476 0s4.87619-12.434286 0-17.310476L531.260952 125.561905c-2.438095-2.438095-5.607619-3.657143-8.533333-3.657143zM580.266667 64.365714a11.459048 11.459048 0 0 0-8.533334 3.657143c-4.87619 4.87619-4.87619 12.434286 0 17.310476l252.830477 252.830477c4.87619 4.87619 12.434286 4.87619 17.310476 0s4.87619-12.434286 0-17.310477L588.8 68.022857c-2.438095-2.438095-5.607619-3.657143-8.533333-3.657143z"  horiz-adv-x="1024" />

    
    <glyph glyph-name="denglu" unicode="&#58895;" d="M511.845 316.363c-60.191 0-116.781 23.44-159.343 66.002-42.562 42.562-66.002 99.151-66.002 159.343s23.44 116.78 66.002 159.343c42.562 42.562 99.152 66.002 159.343 66.002 60.191 0 116.781-23.44 159.343-66.002 42.562-42.562 66.002-99.151 66.002-159.343s-23.44-116.78-66.002-159.343c-42.56-42.563-99.15-66.002-159.343-66.002z m0 403.617c-98.3 0-178.273-79.972-178.273-178.273 0-98.3 79.973-178.272 178.273-178.272s178.273 79.972 178.273 178.272S610.145 719.98 511.845 719.98zM855.698 19.006h-47.072c0 78.935-30.74 153.144-86.554 208.96-55.815 55.813-130.024 86.553-208.959 86.553-78.933 0-153.144-30.74-208.959-86.554-55.814-55.815-86.553-130.024-86.553-208.959h-47.072c0 46.24 9.06 91.106 26.931 133.356 17.256 40.798 41.955 77.433 73.41 108.887s68.089 56.153 108.886 73.41c42.251 17.87 87.118 26.93 133.356 26.93 46.24 0 91.106-9.06 133.357-26.93 40.797-17.257 77.432-41.955 108.887-73.41s56.152-68.09 73.408-108.887c17.872-42.25 26.934-87.117 26.934-133.356z"  horiz-adv-x="1024" />

    


  </font>
</defs>
</svg>
